<?xml version="1.0" encoding="utf-8"?>
<!-- Generator: Adobe Illustrator 25.4.1, SVG Export Plug-In . SVG Version: 6.00 Build 0)  -->
<svg version="1.1" id="Layer_1" xmlns="http://www.w3.org/2000/svg" xmlns:xlink="http://www.w3.org/1999/xlink" x="0px" y="0px"
	 viewBox="0 0 2000 2000" style="enable-background:new 0 0 2000 2000;" xml:space="preserve">
<style type="text/css">
	.st0{fill:url(#SVGID_1_);}
	.st1{fill:#0B3866;}
	.st2{fill:#95F9C3;}
	.st3{fill:#79D19F;}
	.st4{fill:#FFFFFF;}
	.st5{fill:url(#SVGID_00000181776220369062044680000007461679646815360427_);}
	.st6{opacity:0.4;}
</style>
<linearGradient id="SVGID_1_" gradientUnits="userSpaceOnUse" x1="0" y1="1000" x2="2000" y2="1000">
	<stop  offset="0" style="stop-color:#FFFFFF"/>
	<stop  offset="1" style="stop-color:#E4E4E4"/>
</linearGradient>
<rect class="st0" width="2000" height="2000"/>
<g>
	<g>
		<g>
			<path class="st1" d="M552.47,1162.06c1.88,6.42,3.95,13.66,6.21,21.73c2.27,8.07,4.69,16.41,7.27,25.02
				c2.58,8.61,5.2,17.23,7.85,25.84c2.66,8.61,5.24,16.6,7.74,23.96c2.04-7.99,4.13-16.68,6.25-26.07c2.12-9.4,4.13-19.1,6.02-29.13
				c1.89-10.02,3.74-20,5.55-29.95c1.81-9.94,3.5-19.53,5.08-28.77h38.06c-5.51,27.25-11.85,54.89-19.02,82.92
				c-7.17,28.03-14.93,54.65-23.27,79.86h-33.52c-5.47-15.03-10.79-30.81-15.94-47.33c-5.16-16.52-10.24-33.08-15.24-49.68
				c-5.02,16.6-10.03,33.16-15.05,49.68c-5.02,16.52-10.27,32.3-15.76,47.33h-33.49c-8.34-25.21-16.08-51.83-23.24-79.86
				c-7.16-28.03-13.48-55.67-18.99-82.92h39.7c1.57,9.24,3.3,18.83,5.19,28.77c1.89,9.95,3.85,19.93,5.9,29.95
				c2.04,10.02,4.13,19.73,6.25,29.13c2.12,9.4,4.29,18.09,6.49,26.07c2.82-7.67,5.57-15.81,8.24-24.43
				c2.67-8.61,5.26-17.22,7.77-25.84c2.51-8.61,4.82-16.91,6.94-24.9s4.04-15.11,5.77-21.38H552.47z"/>
			<path class="st1" d="M654.48,1246.61c0-10.96,1.68-20.55,5.05-28.77c3.36-8.22,7.79-15.07,13.27-20.55
				c5.48-5.48,11.78-9.63,18.91-12.45c7.12-2.82,14.45-4.23,21.96-4.23c17.54,0,31.39,5.37,41.58,16.09
				c10.18,10.73,15.27,26.51,15.27,47.33c0,2.04-0.08,4.27-0.24,6.69c-0.16,2.43-0.32,4.58-0.47,6.46h-79.39
				c0.78,7.2,4.15,12.92,10.1,17.15c5.95,4.23,13.94,6.34,23.96,6.34c6.42,0,12.72-0.59,18.91-1.76c6.18-1.17,11.23-2.62,15.15-4.35
				l4.7,28.42c-1.88,0.94-4.39,1.88-7.52,2.82c-3.13,0.94-6.62,1.76-10.45,2.47c-3.84,0.7-7.95,1.29-12.33,1.76
				c-4.39,0.47-8.77,0.7-13.15,0.7c-11.12,0-20.79-1.64-29.01-4.93c-8.22-3.29-15.03-7.79-20.44-13.51
				c-5.4-5.71-9.4-12.49-11.98-20.32C655.78,1264.15,654.48,1255.7,654.48,1246.61z M736.69,1233.23c-0.16-2.97-0.67-5.87-1.53-8.69
				c-0.86-2.82-2.19-5.32-3.99-7.52c-1.8-2.19-4.07-3.99-6.81-5.4c-2.74-1.41-6.15-2.11-10.22-2.11c-3.92,0-7.28,0.67-10.1,2
				c-2.82,1.33-5.17,3.09-7.05,5.29c-1.88,2.19-3.33,4.74-4.35,7.63c-1.02,2.9-1.76,5.83-2.23,8.81H736.69z"/>
			<path class="st1" d="M917.09,1245.67c0,9.87-1.45,18.79-4.35,26.78c-2.9,7.99-7.09,14.8-12.57,20.44
				c-5.48,5.64-12.21,9.98-20.2,13.04c-7.99,3.05-17.07,4.58-27.25,4.58c-4.23,0-8.65-0.2-13.27-0.59
				c-4.62-0.39-9.16-0.9-13.62-1.53c-4.46-0.63-8.73-1.37-12.8-2.23c-4.07-0.86-7.67-1.76-10.8-2.7v-172.64l35-5.64v61.54
				c3.91-1.72,7.99-3.05,12.21-3.99c4.23-0.94,8.77-1.41,13.62-1.41c8.77,0,16.52,1.53,23.25,4.58c6.73,3.05,12.37,7.4,16.91,13.04
				c4.54,5.64,7.99,12.41,10.34,20.32C915.91,1227.16,917.09,1235.97,917.09,1245.67z M881.38,1244.74c0-22.55-8.3-33.82-24.9-33.82
				c-3.6,0-7.16,0.47-10.69,1.41c-3.52,0.94-6.38,2.11-8.57,3.52v63.65c1.72,0.32,3.91,0.59,6.58,0.82
				c2.66,0.23,5.56,0.35,8.69,0.35c9.55,0,16.75-3.29,21.61-9.87C878.96,1264.23,881.38,1255.54,881.38,1244.74z"/>
			<path class="st1" d="M1060.53,1162.06c1.88,6.42,3.95,13.66,6.21,21.73c2.27,8.07,4.69,16.41,7.27,25.02
				c2.57,8.61,5.2,17.23,7.85,25.84c2.66,8.61,5.24,16.6,7.74,23.96c2.05-7.99,4.13-16.68,6.26-26.07c2.12-9.4,4.13-19.1,6.02-29.13
				c1.88-10.02,3.73-20,5.55-29.95c1.81-9.94,3.5-19.53,5.08-28.77h38.06c-5.51,27.25-11.86,54.89-19.02,82.92
				c-7.17,28.03-14.93,54.65-23.27,79.86h-33.52c-5.47-15.03-10.79-30.81-15.94-47.33c-5.16-16.52-10.24-33.08-15.24-49.68
				c-5.02,16.6-10.03,33.16-15.05,49.68c-5.02,16.52-10.27,32.3-15.76,47.33h-33.49c-8.34-25.21-16.08-51.83-23.24-79.86
				c-7.16-28.03-13.48-55.67-18.99-82.92h39.7c1.57,9.24,3.3,18.83,5.19,28.77c1.89,9.95,3.85,19.93,5.9,29.95
				c2.04,10.02,4.13,19.73,6.25,29.13c2.12,9.4,4.29,18.09,6.49,26.07c2.82-7.67,5.57-15.81,8.24-24.43
				c2.67-8.61,5.26-17.22,7.77-25.84c2.51-8.61,4.82-16.91,6.94-24.9s4.04-15.11,5.77-21.38H1060.53z"/>
			<path class="st1" d="M1176.17,1307.45v-176.64l35-5.64v59.19c2.35-0.78,5.36-1.53,9.04-2.23c3.68-0.7,7.24-1.06,10.69-1.06
				c10.02,0,18.36,1.37,25.01,4.11c6.65,2.74,11.98,6.62,15.97,11.63c3.99,5.01,6.81,10.96,8.46,17.85
				c1.65,6.89,2.47,14.56,2.47,23.02v69.76h-35v-65.53c0-11.27-1.45-19.26-4.35-23.96s-8.26-7.05-16.09-7.05
				c-3.13,0-6.07,0.28-8.81,0.82c-2.74,0.55-5.21,1.14-7.4,1.76v93.95H1176.17z"/>
			<path class="st1" d="M1313.34,1246.61c0-10.96,1.68-20.55,5.05-28.77c3.37-8.22,7.79-15.07,13.27-20.55
				c5.48-5.48,11.78-9.63,18.91-12.45c7.12-2.82,14.45-4.23,21.96-4.23c17.54,0,31.39,5.37,41.58,16.09
				c10.18,10.73,15.27,26.51,15.27,47.33c0,2.04-0.08,4.27-0.24,6.69c-0.16,2.43-0.32,4.58-0.47,6.46h-79.39
				c0.78,7.2,4.15,12.92,10.1,17.15c5.95,4.23,13.94,6.34,23.96,6.34c6.42,0,12.72-0.59,18.91-1.76c6.18-1.17,11.23-2.62,15.15-4.35
				l4.7,28.42c-1.88,0.94-4.39,1.88-7.52,2.82c-3.13,0.94-6.62,1.76-10.45,2.47c-3.84,0.7-7.95,1.29-12.33,1.76
				c-4.39,0.47-8.77,0.7-13.15,0.7c-11.12,0-20.79-1.64-29.01-4.93c-8.22-3.29-15.03-7.79-20.43-13.51
				c-5.4-5.71-9.4-12.49-11.98-20.32C1314.63,1264.15,1313.34,1255.7,1313.34,1246.61z M1395.55,1233.23
				c-0.16-2.97-0.67-5.87-1.53-8.69c-0.86-2.82-2.19-5.32-3.99-7.52c-1.8-2.19-4.07-3.99-6.81-5.4c-2.74-1.41-6.15-2.11-10.22-2.11
				c-3.92,0-7.28,0.67-10.1,2c-2.82,1.33-5.17,3.09-7.05,5.29c-1.88,2.19-3.33,4.74-4.34,7.63c-1.02,2.9-1.76,5.83-2.23,8.81
				H1395.55z"/>
			<path class="st1" d="M1571.01,1183.9c-7.07,23.8-14.44,46.12-22.14,66.94c-7.69,20.83-16.09,41.03-25.2,60.6
				c-3.3,7.05-6.59,13.04-9.88,17.97c-3.29,4.93-6.9,9-10.82,12.21c-3.92,3.21-8.35,5.56-13.29,7.05
				c-4.94,1.49-10.7,2.23-17.29,2.23c-5.49,0-10.55-0.51-15.18-1.53c-4.62-1.02-8.43-2.15-11.41-3.41l6.11-27.95
				c3.6,1.25,6.82,2.11,9.64,2.58c2.82,0.47,5.8,0.7,8.93,0.7c6.27,0,11.08-1.69,14.45-5.05c3.37-3.37,6.23-8.03,8.58-13.98
				c-7.99-15.66-15.98-33.24-23.97-52.73c-7.99-19.5-15.51-41.38-22.56-65.65h37.11c1.57,6.11,3.42,12.72,5.55,19.85
				c2.12,7.13,4.36,14.33,6.72,21.61c2.36,7.28,4.76,14.37,7.19,21.26c2.43,6.89,4.76,13.15,6.96,18.79
				c2.04-5.64,4.17-11.9,6.37-18.79c2.2-6.89,4.36-13.98,6.49-21.26c2.12-7.28,4.17-14.48,6.13-21.61
				c1.96-7.12,3.73-13.74,5.31-19.85H1571.01z"/>
		</g>
	</g>
	<g>
		<g>
			<g>
				<polygon class="st2" points="943.42,1057.67 763.66,749.12 649.01,749.12 830.18,1057.67 				"/>
				<polygon class="st3" points="649.01,749.12 707.99,649.09 825.47,649.09 763.66,749.12 				"/>
				<polygon class="st1" points="763.66,749.12 943.42,1057.67 1001.92,954.82 825.47,649.09 				"/>
			</g>
			<g>
				<polygon class="st2" points="1174.74,1057.67 997.74,749.12 883.09,749.12 1061.51,1057.67 				"/>
				<polygon class="st3" points="883.09,749.12 942.07,649.09 1059.54,649.09 997.74,749.12 				"/>
				<polygon class="st1" points="997.74,749.12 1174.74,1057.67 1233.24,954.82 1059.54,649.09 				"/>
			</g>
		</g>
		<g>
			<polygon class="st2" points="1115.5,747.7 1173.53,849.14 1293.78,849.14 1234.4,746.76 			"/>
			<polygon class="st1" points="1293.78,849.14 1350.99,750.04 1293.37,649.09 1234.4,746.76 			"/>
			<polygon class="st3" points="1115.5,747.7 1173.53,649.09 1293.37,649.09 1234.4,746.76 			"/>
		</g>
	</g>
</g>
</svg>
